<?xml version="1.0" standalone="no"?>
<!DOCTYPE svg PUBLIC "-//W3C//DTD SVG 20010904//EN"
 "http://www.w3.org/TR/2001/REC-SVG-20010904/DTD/svg10.dtd">
<svg version="1.0" xmlns="http://www.w3.org/2000/svg"
 width="260.000000pt" height="260.000000pt" viewBox="0 0 260.000000 260.000000"
 preserveAspectRatio="xMidYMid meet">
<metadata>
Created by potrace 1.14, written by Peter Selinger 2001-2017
</metadata>
<g transform="translate(0.000000,260.000000) scale(0.100000,-0.100000)"
fill="#000000" stroke="none">
<path d="M680 2200 c-7 -4 -22 -7 -32 -5 -10 2 -18 -1 -18 -7 0 -5 -7 -7 -16
-4 -10 4 -13 2 -8 -6 5 -8 2 -9 -9 -5 -10 3 -17 2 -17 -4 0 -6 -4 -7 -10 -4
-5 3 -10 1 -10 -5 0 -6 -5 -8 -10 -5 -6 3 -13 -1 -16 -9 -3 -9 -10 -16 -16
-16 -5 0 -6 4 -3 10 3 6 -1 7 -10 4 -9 -4 -14 -9 -11 -11 5 -6 -19 -33 -29
-33 -3 0 -3 6 1 13 3 6 -5 -1 -18 -17 -16 -19 -29 -26 -37 -21 -11 6 -11 3 0
-16 12 -23 11 -23 -6 -9 -11 9 -16 10 -11 3 4 -8 2 -13 -4 -13 -6 0 -9 -4 -5
-9 3 -5 -3 -16 -13 -23 -11 -7 -20 -17 -22 -23 -1 -5 -7 -9 -12 -7 -6 2 -8 -6
-5 -18 3 -11 1 -18 -3 -15 -5 3 -14 -4 -20 -15 -6 -11 -8 -20 -4 -20 4 0 -1
-9 -11 -20 -10 -11 -14 -20 -10 -20 5 0 0 -7 -11 -16 -10 -8 -12 -12 -4 -8 12
7 13 5 3 -8 -7 -8 -9 -19 -5 -23 4 -5 2 -5 -5 -2 -6 4 -13 2 -15 -4 -2 -6 -31
-13 -63 -15 -86 -6 -102 -11 -100 -31 0 -10 4 -23 7 -29 4 -6 6 -88 5 -183 -3
-141 -1 -171 11 -166 7 2 11 1 8 -3 -3 -5 13 -9 35 -10 50 -2 59 -7 59 -33 0
-17 -36 -41 -58 -38 -4 1 -20 1 -36 0 -26 -1 -28 -4 -24 -31 3 -17 0 -30 -6
-30 -7 0 -7 -3 0 -8 17 -11 18 -356 1 -346 -8 5 -7 2 2 -9 9 -12 10 -17 2 -17
-9 0 -9 -5 -1 -20 8 -15 8 -20 -2 -20 -9 0 -9 -3 2 -10 21 -14 33 -12 24 2 -5
9 -2 8 9 -1 10 -8 43 -14 75 -15 39 -1 56 -5 55 -14 -2 -6 2 -12 7 -12 6 0 10
-7 10 -15 0 -8 6 -15 13 -15 9 0 9 -2 0 -8 -9 -6 -8 -11 6 -22 11 -7 17 -18
15 -25 -3 -6 9 -27 26 -46 16 -19 32 -42 36 -52 3 -10 10 -14 17 -10 7 4 5 -2
-3 -12 -14 -17 -13 -18 8 -13 17 5 22 2 22 -15 0 -11 3 -18 6 -14 3 3 19 -9
36 -26 16 -18 27 -26 23 -19 -6 11 -3 11 13 1 12 -7 18 -17 15 -23 -4 -5 1 -7
10 -3 10 3 17 2 17 -4 0 -6 4 -7 10 -4 5 3 10 1 10 -5 0 -6 5 -8 10 -5 6 3 13
-1 16 -10 5 -12 9 -13 20 -4 9 7 14 8 14 1 0 -5 7 -13 16 -16 10 -4 13 -2 8 7
-4 6 1 5 12 -5 16 -13 41 -16 147 -16 70 1 127 5 127 10 0 5 8 8 18 7 33 -3
53 1 48 10 -4 5 3 7 14 4 11 -3 20 -1 20 4 0 5 36 7 83 4 202 -11 762 -5 762
9 0 3 83 19 113 22 6 1 12 5 12 10 0 5 5 6 10 3 6 -3 10 -2 10 4 0 6 6 8 14 5
8 -3 17 0 21 5 3 6 11 9 16 6 5 -4 12 1 15 9 3 9 10 14 14 11 12 -8 41 6 34
16 -3 5 2 9 11 9 21 0 46 25 37 36 -4 5 1 2 11 -6 16 -11 18 -11 15 1 -2 8 3
13 10 11 8 -1 11 2 8 7 -8 13 21 41 42 41 14 0 14 2 3 9 -11 7 -9 10 7 15 14
5 19 12 15 23 -4 10 -2 14 4 10 6 -4 16 0 23 8 11 13 10 15 -6 10 -14 -4 -13
-3 3 6 17 9 34 39 32 57 0 2 8 10 18 18 16 12 16 15 3 24 -11 7 -11 10 -2 10
13 0 13 35 -1 58 -5 6 -4 12 1 12 6 0 7 14 2 34 -4 19 -6 37 -4 39 3 2 7 14 9
27 2 12 9 28 15 36 7 7 9 17 6 23 -3 5 2 12 11 15 15 6 15 8 3 16 -13 8 -12
10 2 10 9 0 20 5 24 12 5 7 3 8 -7 3 -12 -8 -12 -6 0 8 7 9 18 14 25 10 6 -4
4 2 -4 12 -8 10 -10 16 -5 13 6 -4 17 2 24 14 10 16 10 19 -1 13 -7 -4 -2 3
12 15 14 12 18 18 10 14 -12 -6 -13 -5 -3 8 7 8 10 18 6 22 -4 4 0 4 9 1 17
-7 29 29 19 56 -8 19 -95 20 -97 1 -1 -6 -3 -14 -4 -17 -1 -3 -3 -8 -5 -12
-17 -62 -55 -95 -46 -40 0 4 -5 6 -11 5 -7 -2 -14 8 -16 22 -2 14 -9 28 -16
32 -8 5 -7 8 3 8 10 0 11 3 2 14 -26 31 3 61 70 71 24 4 50 8 56 9 7 1 20 11
29 22 8 10 13 13 9 7 -4 -9 -1 -11 9 -7 9 3 13 10 10 15 -3 5 0 9 6 9 6 0 9 4
5 9 -3 5 -2 12 3 15 4 2 8 22 7 43 -1 27 -5 37 -15 35 -10 -2 -11 0 -2 11 9
10 7 17 -6 28 -33 26 -77 46 -94 44 -10 -2 -18 1 -18 7 0 6 -9 8 -20 5 -11 -3
-17 -1 -14 4 3 5 -3 12 -13 16 -32 12 -40 26 -31 59 6 26 13 31 35 30 16 -1
34 3 41 8 9 7 15 3 19 -13 4 -17 8 -19 14 -9 7 10 9 10 9 1 0 -7 9 -13 20 -13
11 0 20 -4 20 -9 0 -5 8 -8 18 -6 9 2 20 4 24 4 7 1 1 48 -8 63 -3 4 -12 8
-20 8 -8 0 -14 5 -14 10 0 6 -3 9 -7 9 -5 -1 -10 0 -13 1 -74 29 -211 -8 -218
-58 -2 -12 -6 -20 -10 -18 -9 6 -7 -64 3 -89 13 -32 37 -55 57 -55 10 0 18 -4
18 -10 0 -5 11 -10 25 -10 14 0 25 -4 25 -10 0 -5 9 -10 20 -10 11 0 20 -5 20
-11 0 -5 3 -8 8 -6 4 2 15 -4 25 -15 11 -12 13 -18 5 -18 -10 0 -10 -2 0 -9
11 -6 10 -10 0 -19 -20 -16 -78 -25 -78 -12 0 6 -6 10 -12 9 -31 -4 -48 2 -48
17 0 8 -4 12 -10 9 -5 -3 -10 -1 -10 5 0 6 -4 8 -10 5 -6 -3 -10 2 -10 11 0
10 -2 15 -5 12 -3 -3 -17 4 -30 16 -19 16 -21 24 -12 35 10 12 9 14 -6 8 -10
-4 -16 -3 -12 2 3 5 1 12 -5 16 -6 4 -7 11 -4 17 4 6 2 8 -4 4 -6 -3 -13 -2
-17 4 -3 5 -1 10 5 10 6 0 2 10 -9 21 -15 17 -18 26 -10 40 7 13 6 19 -1 19
-6 0 -2 12 7 27 12 17 13 24 4 19 -10 -7 -12 -4 -7 12 5 15 1 24 -12 31 -11 6
-22 7 -26 4 -3 -3 -6 -1 -6 6 0 7 -4 9 -10 6 -5 -3 -10 0 -10 7 0 9 -3 9 -10
-2 -8 -13 -10 -13 -10 2 0 11 -5 15 -15 12 -10 -4 -15 0 -15 11 0 11 -5 15
-14 12 -9 -4 -12 0 -9 12 3 11 -2 21 -11 24 -9 4 -16 1 -16 -5 0 -6 -3 -8 -6
-5 -4 4 -1 13 6 22 10 12 10 15 -2 15 -8 0 -23 10 -34 22 -19 22 -19 23 1 8
19 -14 19 -14 6 3 -7 9 -19 17 -25 17 -6 0 -18 15 -26 33 -10 21 -21 31 -32
29 -10 -2 -18 3 -18 11 0 17 -42 57 -59 57 -7 0 -9 5 -5 12 5 8 2 9 -9 5 -9
-3 -19 -1 -23 5 -5 7 -2 8 6 3 9 -5 11 -4 6 3 -4 7 -14 12 -22 12 -10 0 -12 5
-8 13 5 7 0 6 -11 -3 -11 -9 -16 -10 -11 -2 4 7 1 12 -9 12 -10 0 -13 5 -9 12
4 6 3 8 -4 5 -12 -8 -44 2 -38 12 2 3 -6 7 -17 8 -32 3 -51 8 -63 15 -12 8
-187 4 -223 -5 -12 -4 -30 -12 -39 -19 -13 -11 -14 -11 -8 1 6 9 1 8 -16 -3
-14 -9 -28 -13 -33 -9 -4 5 -5 2 -1 -4 6 -12 -5 -18 -26 -14 -5 0 -8 -3 -8 -9
0 -5 -5 -10 -11 -10 -5 0 -7 6 -4 13 4 6 1 5 -7 -3 -14 -16 -97 -17 -108 -1
-3 4 -15 7 -27 6 -12 -1 -20 2 -18 6 3 4 -2 10 -11 13 -10 4 -13 2 -8 -6 5 -7
3 -8 -7 -2 -28 18 -79 32 -72 20 4 -6 -1 -5 -10 3 -10 8 -28 15 -40 15 -12 1
-26 4 -32 8 -15 9 -170 8 -185 -2z m1148 -155 c-3 -3 -9 2 -12 12 -6 14 -5 15
5 6 7 -7 10 -15 7 -18z m62 -45 c6 -11 8 -20 6 -20 -3 0 -10 9 -16 20 -6 11
-8 20 -6 20 3 0 10 -9 16 -20z m371 -407 c13 -16 12 -17 -3 -4 -10 7 -18 15
-18 17 0 8 8 3 21 -13z"/>
</g>
</svg>
